<?xml version="1.0" encoding="UTF-8"?>
<svg id="Camada_2" data-name="Camada 2" xmlns="http://www.w3.org/2000/svg" viewBox="0 0 1003.65 323.05">
  <defs>
    <style>
      .cls-1 {
        fill: #ea0029;
      }

      .cls-2 {
        fill: #002856;
      }
    </style>
  </defs>
  <g id="Camada_1-2" data-name="Camada 1">
    <g>
      <path class="cls-1" d="M0,61.7v199.65c0,34.08,27.62,61.7,61.7,61.7h199.65c34.08,0,61.7-27.62,61.7-61.7V61.7c0-34.08-27.62-61.7-61.7-61.7H61.7C27.63,0,0,27.63,0,61.7ZM161.53,276.9c-63.72,0-115.38-51.66-115.38-115.38s51.66-115.37,115.38-115.37,115.37,51.66,115.37,115.37-51.66,115.38-115.37,115.38Z"/>
      <path class="cls-2" d="M414.96,171.38c33.91,0,48.8,15.35,48.8,40.09,0,14.2-5.96,24.74-17.87,31.62,16.72,8.25,22.45,18.56,22.45,34.37,0,28.64-16.95,42.84-51.09,42.84h-35.28c-19.24,0-27.49-8.25-27.49-27.49v-93.93c0-19.24,8.25-27.49,27.49-27.49h32.99ZM392.05,200.02c-4.58,0-6.87,2.29-6.87,6.87v24.06h29.78c11.68,0,17.64-5.27,17.64-15.81s-5.96-15.12-17.64-15.12h-22.91ZM385.18,257.3v27.49c0,4.58,2.29,6.87,6.87,6.87h25.2c13.29,0,19.93-5.5,19.93-16.72s-6.64-17.64-19.93-17.64h-32.07Z"/>
      <path class="cls-2" d="M564.95,264.17l30.01,45.13c5.73,8.48,4.81,11-5.96,11h-8.71c-10.31,0-14.43-2.29-20.62-11.23l-27.95-42.61h-20.85v40.55c0,10.31-2.52,13.29-13.29,13.29h-4.12c-10.77,0-13.29-2.98-13.29-13.29v-108.14c0-19.24,8.25-27.49,27.49-27.49h37.57c33.68,0,50.63,15.81,50.63,47.65,0,24.74-10.31,39.86-30.93,45.13ZM517.76,200.02c-4.58,0-6.87,2.29-6.87,6.87v30.93h34.37c13.29,0,19.93-6.19,19.93-18.79s-5.5-19.02-19.93-19.02h-27.49Z"/>
      <path class="cls-2" d="M740.04,307.47c2.75,10.31.92,12.83-9.85,12.83h-4.35c-10.77,0-13.98-2.52-16.72-12.83l-5.96-23.37h-60.48l-5.96,23.37c-2.75,10.31-5.96,12.83-16.72,12.83h-4.35c-10.77,0-12.6-2.52-9.85-12.83l25.66-94.85c4.58-17.18,7.1-24.28,13.29-32.53,6.19-8.25,14.43-11,28.18-11s21.99,2.75,28.18,11c6.19,8.25,8.71,15.35,13.29,32.53l25.66,94.85ZM649.78,256.61h46.05l-11-42.61c-2.06-7.56-3.67-12.14-4.81-14.2-1.15-2.06-3.67-3.21-7.1-3.21s-5.96,1.15-7.1,3.21c-1.15,2.06-2.75,6.64-4.81,14.2l-11.23,42.61Z"/>
      <path class="cls-2" d="M746.75,300.6c0-10.77,2.98-13.52,13.29-10.77,11.68,2.98,23.14,4.58,34.82,4.58,18.33,0,24.97-3.21,24.97-12.37,0-6.64-3.67-10.31-18.33-18.79l-29.33-17.18c-15.35-8.94-23.14-21.76-23.14-38.49,0-25.66,16.04-38.49,53.38-38.49,10.31,0,19.93,1.15,28.64,3.67,11,2.98,13.52,5.73,13.52,16.04v2.29c0,11-2.75,13.29-13.52,10.31-8.02-2.52-17.41-3.67-28.64-3.67-15.58,0-21.76,2.52-21.76,10.77,0,5.5,2.75,8.48,12.6,14.2l30.47,17.87c19.24,11.23,27.72,21.99,27.72,41.47,0,26.81-16.72,41.01-57.05,41.01-12.6,0-24.28-1.37-34.59-4.35-10.77-2.98-13.06-5.5-13.06-15.81v-2.29Z"/>
      <path class="cls-2" d="M861.89,184.67c0-10.31,2.52-13.29,13.29-13.29h4.12c10.77,0,13.29,2.98,13.29,13.29v122.34c0,10.31-2.52,13.29-13.29,13.29h-4.12c-10.77,0-13.29-2.98-13.29-13.29v-122.34Z"/>
      <path class="cls-2" d="M906.28,184.67c0-10.31,2.52-13.29,13.29-13.29h4.12c10.77,0,13.29,2.98,13.29,13.29v100.12c0,4.58,2.29,6.87,6.87,6.87h46.51c10.31,0,13.29,2.52,13.29,13.29v2.06c0,10.31-2.98,13.29-13.29,13.29h-56.59c-19.24,0-27.49-8.25-27.49-27.49v-108.14Z"/>
      <path class="cls-2" d="M385.18,91.64v46.28c0,10.31-2.52,13.29-13.29,13.29h-4.12c-10.77,0-13.29-2.98-13.29-13.29V29.78c0-19.24,8.25-27.49,27.49-27.49h45.26c10.31,0,13.29,2.98,13.29,13.29v2.06c0,10.77-2.98,13.29-13.29,13.29h-35.18c-4.58,0-6.87,2.29-6.87,6.87v25.2h32.89c10.31,0,13.29,2.52,13.29,13.29v2.06c0,10.31-2.98,13.29-13.29,13.29h-32.89Z"/>
      <path class="cls-2" d="M453,15.58c0-10.31,2.52-13.29,13.29-13.29h4.12c10.77,0,13.29,2.98,13.29,13.29v122.34c0,10.31-2.52,13.29-13.29,13.29h-4.12c-10.77,0-13.29-2.98-13.29-13.29V15.58Z"/>
      <path class="cls-2" d="M499.46,15.58c0-10.31,2.52-13.29,13.29-13.29h4.12c10.77,0,13.29,2.98,13.29,13.29v100.12c0,4.58,2.29,6.87,6.87,6.87h30.6c10.31,0,13.29,2.52,13.29,13.29v2.06c0,10.31-2.98,13.29-13.29,13.29h-40.68c-19.24,0-27.49-8.25-27.49-27.49V15.58Z"/>
      <path class="cls-2" d="M556.92,15.58c0-10.31,2.52-13.29,13.29-13.29h76.42c10.31,0,13.29,2.98,13.29,13.29v2.06c0,10.77-2.98,13.29-13.29,13.29h-22.74v106.99c0,10.31-2.98,13.29-13.29,13.29h-4.35c-10.77,0-13.29-2.98-13.29-13.29V30.93h-22.74c-10.77,0-13.29-2.52-13.29-13.29v-2.06Z"/>
      <path class="cls-2" d="M738.03,95.08l30.01,45.13c5.73,8.48,1.63,11-9.14,11h-8.71c-10.31,0-11.25-2.29-17.44-11.23l-26.39-40.23c-.97-1.49-2.63-2.38-4.41-2.38h0c-2.91,0-5.27,2.36-5.27,5.27v35.28c0,10.31-2.52,13.29-13.29,13.29h-4.12c-10.77,0-13.29-2.98-13.29-13.29V29.78c0-15.18,12.31-27.49,27.49-27.49h24.84c33.68,0,50.63,15.81,50.63,47.65,0,24.74-10.31,39.86-30.93,45.13ZM703.57,30.93c-4.58,0-6.87,2.29-6.87,6.87v30.93h21.64c13.29,0,19.93-6.19,19.93-18.79s-5.5-19.02-19.93-19.02h-14.76Z"/>
      <path class="cls-2" d="M879.8,16.04c-9.39-10.54-20.89-15.81-44.48-15.81s-35.09,5.27-44.48,15.81c-9.39,10.54-13.98,25.66-13.98,45.13v32.07c0,19.47,4.58,34.59,13.98,45.13,9.39,10.54,20.89,15.81,44.48,15.81s35.09-5.27,44.48-15.81c9.39-10.54,13.98-25.66,13.98-45.13v-32.07c0-19.47-4.58-34.59-13.98-45.13ZM862.84,93.25c0,11.45-2.06,19.7-6.41,24.74-4.35,5.04-8.06,7.56-21.12,7.56s-16.76-2.52-21.12-7.56c-4.35-5.04-6.41-13.29-6.41-24.74v-32.07c0-11.45,2.06-19.7,6.41-24.74,4.35-5.04,8.06-7.56,21.12-7.56s16.76,2.52,21.12,7.56c4.35,5.04,6.41,13.29,6.41,24.74v32.07Z"/>
      <path class="cls-2" d="M898.95,131.51c0-10.77,2.98-13.52,13.29-10.77,11.68,2.98,23.14,4.58,34.82,4.58,18.33,0,24.97-3.21,24.97-12.37,0-6.64-3.67-10.31-18.33-18.79l-29.33-17.18c-15.35-8.94-23.14-21.76-23.14-38.49,0-25.66,16.04-38.49,53.38-38.49,10.31,0,19.93,1.15,28.64,3.67,11,2.98,13.52,5.73,13.52,16.04v2.29c0,11-2.75,13.29-13.52,10.31-8.02-2.52-17.41-3.67-28.64-3.67-15.58,0-21.76,2.52-21.76,10.77,0,5.5,2.75,8.48,12.6,14.2l30.47,17.87c19.24,11.23,27.72,21.99,27.72,41.47,0,26.8-16.72,41.01-57.05,41.01-12.6,0-24.28-1.37-34.59-4.35-10.77-2.98-13.06-5.5-13.06-15.81v-2.29Z"/>
    </g>
  </g>
</svg>